<svg xmlns="http://www.w3.org/2000/svg" width="448.33" height="431.891" viewBox="0 0 448.33 431.891">
  <g id="annual-tax-report" transform="translate(-260.25 -296.543)">
    <path id="Path_29526" data-name="Path 29526" d="M1760.238,335.99H1700.72V698.715h59.518a43.516,43.516,0,0,0,43.51-43.51V379.5A43.516,43.516,0,0,0,1760.238,335.99Z" transform="translate(-1114.223 -30.513)" fill="#161c1c"/>
    <path id="Path_29527" data-name="Path 29527" d="M1758.753,697.672H1698.8V334.08h59.953a43.992,43.992,0,0,1,43.943,43.943V653.73A43.992,43.992,0,0,1,1758.753,697.672Zm-59.083-.867h59.083a43.125,43.125,0,0,0,43.076-43.076V378.023a43.125,43.125,0,0,0-43.076-43.076H1699.67Z" transform="translate(-1112.738 -29.035)"/>
    <path id="Path_29528" data-name="Path 29528" d="M1337.783,379.5V655.2a43.516,43.516,0,0,1-43.51,43.51H1151.21a43.509,43.509,0,0,1-43.51-43.51V379.5a43.509,43.509,0,0,1,43.51-43.51h143.063A43.516,43.516,0,0,1,1337.783,379.5Z" transform="translate(-655.514 -30.513)" fill="#fff"/>
    <path id="Path_29529" data-name="Path 29529" d="M1292.788,697.665H1149.725a43.994,43.994,0,0,1-43.945-43.943V378.015a43.994,43.994,0,0,1,43.945-43.945h143.063a44,44,0,0,1,43.945,43.945v275.7A44,44,0,0,1,1292.788,697.665ZM1149.725,334.94a43.124,43.124,0,0,0-43.075,43.076v275.7a43.124,43.124,0,0,0,43.075,43.076h143.063a43.125,43.125,0,0,0,43.075-43.076v-275.7a43.125,43.125,0,0,0-43.075-43.076Z" transform="translate(-654.029 -29.027)"/>
    <path id="Path_29530" data-name="Path 29530" d="M1553.878,411.228H1509.07a2.241,2.241,0,0,1-2.24-2.24V407.07a2.241,2.241,0,0,1,2.24-2.24h44.808a2.24,2.24,0,0,1,2.24,2.24v1.918A2.242,2.242,0,0,1,1553.878,411.228Z" transform="translate(-964.246 -83.761)" fill="#161c1c"/>
    <rect id="Rectangle_11622" data-name="Rectangle 11622" width="50.681" height="22.27" transform="translate(477.51 411.167)" fill="#007afd"/>
    <path id="Path_29531" data-name="Path 29531" d="M1459.822,556.1h-99.858a10.315,10.315,0,0,1-10.314-10.314V511.714a10.315,10.315,0,0,1,10.314-10.314h99.858a10.314,10.314,0,0,1,10.314,10.314V545.78A10.315,10.315,0,0,1,1459.822,556.1Z" transform="translate(-842.665 -158.459)" fill="#444ba1"/>
    <path id="Path_29532" data-name="Path 29532" d="M1504.04,582.876h-6.91v-2.494h16.816v2.494H1507V603.1h-2.965Zm13.58,13.075-2.36,7.146h-3.033l7.717-22.717h3.54l7.753,22.717H1528.1l-2.426-7.146Zm7.447-2.29-2.224-6.539c-.5-1.481-.843-2.831-1.18-4.145h-.068c-.337,1.348-.707,2.729-1.146,4.113l-2.224,6.573h6.842Zm21.467,9.435-2.9-5.021c-1.18-1.921-1.921-3.169-2.627-4.482h-.068c-.641,1.316-1.28,2.528-2.46,4.516l-2.729,4.987h-3.37l6.942-11.492-6.672-11.222h3.4l3,5.325c.843,1.484,1.483,2.629,2.091,3.841h.1c.641-1.348,1.214-2.392,2.056-3.841l3.1-5.325h3.37l-6.91,11.055,7.078,11.662h-3.406Z" transform="translate(-956.743 -219.551)" fill="#fff"/>
    <rect id="Rectangle_11623" data-name="Rectangle 11623" width="188.412" height="17.238" transform="translate(473.021 446.968)" fill="#e5e8ff"/>
    <rect id="Rectangle_11624" data-name="Rectangle 11624" width="23.181" height="9.281" transform="translate(473.021 482.828)" fill="#e5e8ff"/>
    <rect id="Rectangle_11625" data-name="Rectangle 11625" width="48.23" height="9.281" transform="translate(528.19 482.828)" fill="#e5e8ff"/>
    <rect id="Rectangle_11626" data-name="Rectangle 11626" width="70.87" height="9.281" transform="translate(590.565 482.828)" fill="#e5e8ff"/>
    <rect id="Rectangle_11627" data-name="Rectangle 11627" width="23.181" height="9.281" transform="translate(473.021 502.385)" fill="#e5e8ff"/>
    <rect id="Rectangle_11628" data-name="Rectangle 11628" width="48.23" height="9.281" transform="translate(528.19 502.385)" fill="#e5e8ff"/>
    <rect id="Rectangle_11629" data-name="Rectangle 11629" width="70.87" height="9.281" transform="translate(590.565 502.385)" fill="#e5e8ff"/>
    <rect id="Rectangle_11630" data-name="Rectangle 11630" width="23.181" height="9.281" transform="translate(473.021 521.942)" fill="#e5e8ff"/>
    <rect id="Rectangle_11631" data-name="Rectangle 11631" width="48.23" height="9.281" transform="translate(528.19 521.942)" fill="#e5e8ff"/>
    <rect id="Rectangle_11632" data-name="Rectangle 11632" width="70.87" height="9.281" transform="translate(590.565 521.942)" fill="#e5e8ff"/>
    <path id="Path_29533" data-name="Path 29533" d="M1738.435,1486.833l-12.835-16.755a40.993,40.993,0,0,1,23.027-7.028,10.162,10.162,0,0,1,1.085.039l-1.85,21A19.951,19.951,0,0,0,1738.435,1486.833Z" transform="translate(-1133.468 -902.309)" fill="#ffd24f"/>
    <path id="Path_29534" data-name="Path 29534" d="M1666.716,1536.354H1645.61a41.018,41.018,0,0,1,14.087-28.544l12.835,16.74A20.143,20.143,0,0,0,1666.716,1536.354Z" transform="translate(-1071.595 -936.931)" fill="#04b5a4"/>
    <path id="Path_29535" data-name="Path 29535" d="M1727.983,1505.867a41.226,41.226,0,0,1-82.373,2.548h21.106a20.2,20.2,0,1,0,24.343-22.3l1.85-21.021A41.231,41.231,0,0,1,1727.983,1505.867Z" transform="translate(-1071.595 -903.894)" fill="#ff4148"/>
    <rect id="Rectangle_11633" data-name="Rectangle 11633" width="84.699" height="2.498" transform="translate(479.804 633.883)" fill="#242b2b"/>
    <rect id="Rectangle_11634" data-name="Rectangle 11634" width="18.923" height="63.004" transform="translate(482.798 570.879)" fill="#ff4148"/>
    <rect id="Rectangle_11635" data-name="Rectangle 11635" width="18.923" height="2.308" transform="translate(482.798 564.472)" fill="#f23243"/>
    <rect id="Rectangle_11636" data-name="Rectangle 11636" width="18.923" height="22.443" transform="translate(512.692 611.44)" fill="#ffd24f"/>
    <rect id="Rectangle_11637" data-name="Rectangle 11637" width="18.923" height="2.308" transform="translate(512.692 605.033)" fill="#ffb902"/>
    <rect id="Rectangle_11638" data-name="Rectangle 11638" width="18.923" height="2.308" transform="translate(542.586 583.13)" fill="#00887d"/>
    <rect id="Rectangle_11639" data-name="Rectangle 11639" width="18.923" height="44.346" transform="translate(542.586 589.537)" fill="#04b5a4"/>
    <g id="Group_21978" data-name="Group 21978" transform="translate(551.063 652.996)">
      <path id="Path_29536" data-name="Path 29536" d="M1743.515,2090.849v19.277c0,1.426-1.551,2.588-3.468,2.588h-137.79c-1.916,0-3.468-1.162-3.468-2.588v-19.277c0-1.427,1.552-2.589,3.468-2.589h137.79C1741.966,2088.26,1743.515,2089.42,1743.515,2090.849Z" transform="translate(-1586.442 -2038.913)" fill="#ffd24f"/>
      <path id="Path_29537" data-name="Path 29537" d="M1743.577,2090.849v19.277c0,1.426-1.551,2.588-3.468,2.588h-137.79c-1.8,0-3.27-1.021-3.449-2.321h137.656c1.916,0,3.468-1.162,3.468-2.589v-19.276c0-.086-.009-.181-.018-.267h.134C1742.028,2088.26,1743.577,2089.42,1743.577,2090.849Z" transform="translate(-1586.504 -2038.913)" fill="#ffb902"/>
      <path id="Path_29538" data-name="Path 29538" d="M1689.872,2088.25v24.442c0,.009,0,.016-.009.016h-5.594s-.009-.007-.009-.016v-24.427c0-.009,0-.016.009-.016h5.6Zm98.531,0v24.442c0,.009,0,.016-.011.016h-6.912c-.007,0-.011-.007-.011-.016v-24.427c0-.009,0-.016.011-.016h6.924Zm-9.531,0v24.442c0,.009,0,.016-.007.016h-4.032s-.007-.007-.007-.016v-24.427c0-.009,0-.016.007-.016h4.038Zm-6.194,0v24.442a.016.016,0,0,1-.016.016h-9.924a.015.015,0,0,1-.016-.016v-24.427a.015.015,0,0,1,.016-.016h9.941Zm-69.267,0v24.442a.015.015,0,0,1-.016.016h-9.922a.015.015,0,0,1-.016-.016v-24.427a.015.015,0,0,1,.016-.016h9.938Z" transform="translate(-1652.554 -2038.905)" fill="#fff" opacity="0.3"/>
      <path id="Path_29539" data-name="Path 29539" d="M1738.562,2111.653h-137.79c-2.152,0-3.9-1.357-3.9-3.024v-19.276c0-1.667,1.751-3.024,3.9-3.024h137.792c2.152,0,3.9,1.356,3.9,3.024v19.276C1742.465,2110.3,1740.716,2111.653,1738.562,2111.653Zm-137.79-24.452c-1.674,0-3.033.967-3.033,2.154v19.276c0,1.187,1.361,2.154,3.033,2.154h137.792c1.674,0,3.033-.967,3.033-2.154v-19.276c0-1.187-1.361-2.154-3.033-2.154Z" transform="translate(-1584.957 -2037.42)"/>
      <path id="Path_29540" data-name="Path 29540" d="M1690.915,1982.859v19.276c0,1.427-1.551,2.588-3.468,2.588h-137.79c-1.916,0-3.468-1.162-3.468-2.588v-19.276c0-1.427,1.552-2.589,3.468-2.589h137.79C1689.364,1980.27,1690.915,1981.432,1690.915,1982.859Z" transform="translate(-1545.755 -1955.381)" fill="#ffd24f"/>
      <path id="Path_29541" data-name="Path 29541" d="M1690.977,1982.859v19.276c0,1.427-1.551,2.588-3.468,2.588h-137.79c-1.8,0-3.27-1.021-3.449-2.321h137.656c1.916,0,3.468-1.162,3.468-2.589v-19.276c0-.086-.009-.181-.018-.267h.133C1689.425,1980.27,1690.977,1981.432,1690.977,1982.859Z" transform="translate(-1545.817 -1955.381)" fill="#ffb902"/>
      <path id="Path_29542" data-name="Path 29542" d="M1637.262,1980.26V2004.7c0,.009,0,.016-.009.016h-5.594s-.009-.006-.009-.016v-24.427c0-.009,0-.016.009-.016Zm98.533,0V2004.7c0,.009,0,.016-.012.016h-6.912c-.007,0-.011-.006-.011-.016v-24.427c0-.009,0-.016.011-.016Zm-9.533,0V2004.7c0,.009,0,.016-.007.016h-4.032s-.006-.006-.006-.016v-24.427c0-.009,0-.016.006-.016Zm-6.192,0V2004.7a.015.015,0,0,1-.016.016h-9.925a.015.015,0,0,1-.016-.016v-24.427a.016.016,0,0,1,.016-.016Zm-69.266,0V2004.7a.015.015,0,0,1-.016.016h-9.923a.015.015,0,0,1-.016-.016v-24.427a.016.016,0,0,1,.016-.016Z" transform="translate(-1611.859 -1955.374)" fill="#fff" opacity="0.3"/>
      <path id="Path_29543" data-name="Path 29543" d="M1685.962,2003.673h-137.79c-2.152,0-3.9-1.357-3.9-3.024v-19.276c0-1.667,1.751-3.023,3.9-3.023h137.792c2.152,0,3.9,1.356,3.9,3.023v19.276C1689.865,2002.316,1688.114,2003.673,1685.962,2003.673Zm-137.79-24.454c-1.674,0-3.032.967-3.032,2.154v19.276c0,1.187,1.361,2.154,3.032,2.154h137.792c1.674,0,3.033-.967,3.033-2.154v-19.276c0-1.187-1.361-2.154-3.033-2.154Z" transform="translate(-1544.27 -1953.896)"/>
      <path id="Path_29544" data-name="Path 29544" d="M1743.555,1874.889v19.276c0,1.427-1.551,2.589-3.468,2.589H1602.3c-1.916,0-3.468-1.162-3.468-2.589v-19.276c0-1.427,1.551-2.589,3.468-2.589h137.79C1742.006,1872.3,1743.555,1873.462,1743.555,1874.889Z" transform="translate(-1586.473 -1871.865)" fill="#ffd24f"/>
      <path id="Path_29545" data-name="Path 29545" d="M1689.912,1872.29v24.442c0,.009,0,.016-.009.016h-5.594s-.009-.007-.009-.016v-24.426c0-.009,0-.016.009-.016Zm98.531,0v24.442c0,.009,0,.016-.011.016h-6.912c-.007,0-.011-.007-.011-.016v-24.426c0-.009,0-.016.011-.016Zm-9.531,0v24.442c0,.009,0,.016-.007.016h-4.032s-.007-.007-.007-.016v-24.426c0-.009,0-.016.007-.016Zm-6.194,0v24.442a.015.015,0,0,1-.016.016h-9.925a.016.016,0,0,1-.016-.016v-24.426a.016.016,0,0,1,.016-.016Zm-69.266,0v24.442a.015.015,0,0,1-.016.016h-9.922a.015.015,0,0,1-.016-.016v-24.426a.016.016,0,0,1,.016-.016Z" transform="translate(-1652.585 -1871.858)" fill="#fff" opacity="0.3"/>
      <path id="Path_29546" data-name="Path 29546" d="M1738.6,1895.7H1600.812c-2.152,0-3.9-1.357-3.9-3.024V1873.4c0-1.667,1.751-3.023,3.9-3.023H1738.6c2.152,0,3.9,1.357,3.9,3.023v19.276C1742.5,1894.347,1740.754,1895.7,1738.6,1895.7Zm-137.792-24.454c-1.674,0-3.033.967-3.033,2.154v19.276c0,1.189,1.361,2.156,3.033,2.156H1738.6c1.672,0,3.033-.967,3.033-2.156V1873.4c0-1.187-1.361-2.154-3.033-2.154Z" transform="translate(-1584.988 -1870.38)"/>
    </g>
    <g id="Group_21984" data-name="Group 21984" transform="translate(260.25 296.543)">
      <path id="Path_29547" data-name="Path 29547" d="M651.89,672.557s19.544,42.317,31.586,44.8c11.956,2.476,61.251-43.15,66.886-48.411.843-.46,2.586-1.388,4.272-2.292,2.335-1.268,18.318-13.145,18.875-16.792a2.367,2.367,0,0,0-2.093-2.89s2.215-2.163.919-3.8c-1.18-1.5-3.248-.781-3.524-.677a2.883,2.883,0,0,0,1.268-3.438c-.791-2.265-3.986-1.137-4.192-1.067.4-.294,13.458-10.045,11.1-12.815-2.405-2.822-25.4,17.025-25.4,17.025s.607-9.438-2.534-8.908c-4.072.686-10.357,16.912-10.357,16.912l-46.181,30.361-8.969-12.754Z" transform="translate(-563.189 -550.529)" fill="#ffcfc5"/>
      <path id="Path_29548" data-name="Path 29548" d="M1117.459,705.635a1.325,1.325,0,0,1-.165-.009,1.177,1.177,0,0,1-.877-.5,2.7,2.7,0,0,1-.415-2.109c.568-2.994,5.3-6.2,5.5-6.339l.485.72c-.048.029-4.627,3.141-5.128,5.78a1.832,1.832,0,0,0,.276,1.454.315.315,0,0,0,.254.127c1.705.177,7.143-4.283,10.185-7.137l.593.632C1127.347,699.029,1120.229,705.635,1117.459,705.635Z" transform="translate(-922.141 -606.054)" fill="#ffb29f"/>
      <path id="Path_29549" data-name="Path 29549" d="M1128.685,727.386a2.366,2.366,0,0,1-.256-.014,1.83,1.83,0,0,1-1.432-.942c-1.255-2.174,1.647-5.123,1.771-5.248l.614.614c-.716.718-2.4,2.872-1.635,4.2a.957.957,0,0,0,.775.512,1.532,1.532,0,0,0,.181.009c2.464,0,7.676-5.051,9.521-7.048l.639.589C1138.159,720.824,1132,727.383,1128.685,727.386Z" transform="translate(-930.448 -623.683)" fill="#ffb29f"/>
      <path id="Path_29550" data-name="Path 29550" d="M1087.931,717.079a2.575,2.575,0,0,1-.607-.066,1.534,1.534,0,0,1-1.026-.745,2.529,2.529,0,0,1-.256-1.984,5.33,5.33,0,0,1,2.367-2.652l.421.759a4.527,4.527,0,0,0-1.952,2.131,1.662,1.662,0,0,0,.177,1.318.689.689,0,0,0,.476.328c1.742.421,6.154-2.149,7.712-3.178l.478.725C1095.158,714.088,1090.538,717.079,1087.931,717.079Zm-14.978-5.63-.353-.793c4.733-2.1,3.977-9.426,3.968-9.5l.863-.1C1077.469,701.388,1078.262,709.091,1072.953,711.449Z" transform="translate(-888.614 -609.442)" fill="#ffb29f"/>
      <path id="Path_29551" data-name="Path 29551" d="M673.13,684.823l-6.029,4.709-7.121,4.89-2.566,1.758-6.869,4.709-2.1,1.441-18.133-44.009-.688-15.779s9.431.985,19.713,9.911C656.839,658.958,673.13,684.823,673.13,684.823Z" transform="translate(-545.963 -564.176)" fill="#014eb1"/>
      <path id="Path_29552" data-name="Path 29552" d="M719.536,799.379l-2.566,1.758-6.869,4.709-3.49-27.615Z" transform="translate(-605.515 -669.134)"/>
      <path id="Path_29553" data-name="Path 29553" d="M808.836,2097.992l-25.758-13.922-6.953-6.14-28.059,4.224.023,22a1.825,1.825,0,0,0,1.78,2.2h60.071a1.827,1.827,0,0,0,1.828-1.828v-2.179A4.7,4.7,0,0,0,808.836,2097.992Z" transform="translate(-637.569 -1674.47)"/>
      <path id="Path_29554" data-name="Path 29554" d="M776.115,1991.358l.072-25.348-28.148,1.624.016,27.948C759.444,2000.382,769.733,1998.728,776.115,1991.358Z" transform="translate(-637.562 -1587.898)" fill="#ffcfc5"/>
      <path id="Path_29555" data-name="Path 29555" d="M906.745,2127.111l-.765-.41a8.02,8.02,0,0,1,5.959-4.231l.079.865A7.142,7.142,0,0,0,906.745,2127.111Zm5.617,3.132-.766-.41a8.013,8.013,0,0,1,5.959-4.231l.079.865A7.138,7.138,0,0,0,912.362,2130.243Z" transform="translate(-759.731 -1708.922)" fill="#fff"/>
      <path id="Path_29556" data-name="Path 29556" d="M500.705,1114.57l42.983,79.044a40.932,40.932,0,0,1,4.965,18.674l2.285,105.185H505.93l-2.557-104.428-59.953-82.375Z" transform="translate(-401.934 -929.298)" fill="#242b2b"/>
      <path id="Path_29557" data-name="Path 29557" d="M671.67,798.723c7.388,14.663,17.652,31.153,26.762,32.023a22.034,22.034,0,0,0,2.72.086c-4.047-4.994-6.752-10.935-9.318-16.842-5.071-11.684-9.884-24.048-8.98-36.768l-1.1-3.393A80.505,80.505,0,0,0,671.67,798.723Z" transform="translate(-578.489 -665.731)"/>
      <path id="Path_29558" data-name="Path 29558" d="M260.635,2080.727l-.385-.779a7.969,7.969,0,0,1,7.252.018l-.437.75A7.088,7.088,0,0,0,260.635,2080.727Z" transform="translate(-260.25 -1675.364)" fill="#fff"/>
      <path id="Path_29559" data-name="Path 29559" d="M377.476,2097.992l-25.758-13.922-6.953-6.14-28.059,4.224.023,22a1.825,1.825,0,0,0,1.78,2.2h60.071a1.827,1.827,0,0,0,1.828-1.828v-2.179A4.689,4.689,0,0,0,377.476,2097.992Z" transform="translate(-303.906 -1674.47)"/>
      <path id="Path_29560" data-name="Path 29560" d="M344.765,1991.358l.072-25.348-28.148,1.624.016,27.948C328.091,2000.382,338.381,1998.728,344.765,1991.358Z" transform="translate(-303.907 -1587.898)" fill="#ffcfc5"/>
      <path id="Path_29561" data-name="Path 29561" d="M475.4,2127.111l-.766-.41a8.02,8.02,0,0,1,5.959-4.231l.079.865A7.138,7.138,0,0,0,475.4,2127.111Zm5.617,3.132-.765-.41a8.014,8.014,0,0,1,5.959-4.231l.079.865A7.131,7.131,0,0,0,481.012,2130.243Z" transform="translate(-426.076 -1708.922)" fill="#fff"/>
      <path id="Path_29562" data-name="Path 29562" d="M339.167,1319.793H295.99l7.71-96.9s.634-70.064,5.277-90.858a113.612,113.612,0,0,1,4.253-14.47h48.5c-3.7,29.8-10.156,82.792-12.2,105.325C347.4,1246.5,341.758,1296.861,339.167,1319.793Z" transform="translate(-287.895 -931.618)" fill="#242b2b"/>
      <path id="Path_29563" data-name="Path 29563" d="M554.783,1216.33l-.863-.1c1.538-13.071,3.345-28.057,5.372-44.548l.861.1C558.126,1188.275,556.318,1203.261,554.783,1216.33Z" transform="translate(-487.408 -973.473)" fill="#fff"/>
      <path id="Path_29564" data-name="Path 29564" d="M350.693,749.338c1.275,3.377,10.541,5.338,22.59,6.269l16.28.652c22.01.217,45.667-1.866,48.436-4.55,6.181-5.966-2.978-19.491-3.046-21.081-1.1-26.359,5.191-70.827-7.223-86.353-1.717-2.147-7.857-4.672-14.622-5.868-9.6-1.7-21.575-1.47-33.534-.181-10.477,1.13-21.541,4.976-25.668,7.857-5.438,3.8-2.041,23.432-1.771,44.364.052,3.984.156,8,.294,11.981.147,4.559.347,9.046.564,13.336.279,5.243.564,10.176.843,14.509.138,2.075.269,4.029.392,5.807C354.226,736.082,347.169,739.946,350.693,749.338Z" transform="translate(-329.447 -560.044)" fill="#014eb1"/>
      <path id="Path_29565" data-name="Path 29565" d="M332.656,776.244c-.417.815,18.128,9.186,21.254,9s35.119-4.559,35.119-4.559l-34.077-5.855s5.9-24.4,6.98-30.245c1.25-6.754-.147-20.76-1.094-22.191-.365-.555.1,2.317.1,2.317Z" transform="translate(-316.252 -625.892)"/>
      <path id="Path_29566" data-name="Path 29566" d="M585.822,316.5s7.719-3.28,11,1.737-3.078,24.519,3.268,38.414c5.472,11.977,6.8,18.388-2.17,24.467s-22.556,5.06-25.921-3.431S585.822,316.5,585.822,316.5Z" transform="translate(-501.055 -311.169)" fill="#161c1c"/>
      <path id="Path_29567" data-name="Path 29567" d="M513.546,641.975c-4.872,2.643-8.756-5.3-8.756-5.3L503.2,621.922l1.837-4.242h2.985l7.089,5.63S518.416,639.33,513.546,641.975Zm-8.756-5.3s-4.713,9.739-9.372,7.977-13.838-21.518-13.838-21.518l5.662-4.788,10.224-.661,2.666,9.5Z" transform="translate(-431.452 -544.947)" fill="#00448e"/>
      <path id="Path_29568" data-name="Path 29568" d="M506.57,620.6a96.746,96.746,0,0,0,17.551,18.332c1.887-5.782,4-9.567,3.443-16.364Z" transform="translate(-450.782 -547.205)" fill="#ffcfc5"/>
      <path id="Path_29569" data-name="Path 29569" d="M527.563,522.342l-20.993-1.966,1.123-29.346,1.708,2.883.573.958.258.433.315.159,16.239,8.135v.227l.2,12.971v.138Z" transform="translate(-450.782 -446.981)" fill="#ffcfc5"/>
      <path id="Path_29570" data-name="Path 29570" d="M538.377,528.258v.138c-3.988-2.745-13.85-10.355-16.624-20.3a14.866,14.866,0,0,1-.385-1.758c-.029-.168-.05-.326-.068-.485l.641,1.076.188.315,16.051,8.045Z" transform="translate(-462.176 -458.445)" fill="#fc9b88"/>
      <path id="Path_29571" data-name="Path 29571" d="M508.153,390.463c-8.751,1.255-18.524-6.4-22.454-18.327a8.117,8.117,0,0,1-5.877-2.829c-2.706-2.96-3.125-7.012-.9-9.014a4.928,4.928,0,0,1,4.919-.836c.188-11.7,5.757-21.188,14.022-22.574,6.174-1.035,12.393,2.675,16.83,9.191a36.989,36.989,0,0,1,5.712,14.737C522.913,375.669,516.8,389.208,508.153,390.463Z" transform="translate(-428.287 -327.613)" fill="#ffcfc5"/>
      <path id="Path_29572" data-name="Path 29572" d="M452.867,315c-7.728,7.309-22.873,11.492-22.873,11.492s-1.166,6.847-1.64,8.1-3.479,4.349-3.28,1.067-3.06-7.275-3.06-7.275a4.928,4.928,0,0,0-4.919.836c-2.224,2-1.805,6.054.9,9.014a8.116,8.116,0,0,0,5.877,2.829l-1.692,26.073s-12.758,4.618-18.9-.467c-4.534-3.764-9.1-10.715-2.158-17.374s5.413-30.906,10.631-42.3,39.952-15.736,45.071-1.361C458.411,310.1,456.334,311.722,452.867,315Z" transform="translate(-366.462 -296.543)" fill="#161c1c"/>
      <path id="Path_29573" data-name="Path 29573" d="M627.862,441.47l4.731,13.136L626,456.051Z" transform="translate(-543.162 -408.646)" fill="#fc9b88"/>
      <g id="Group_21979" data-name="Group 21979" transform="translate(2.118 381.813)">
        <path id="Path_29574" data-name="Path 29574" d="M269.6,1986.918a4.563,4.563,0,0,0,4.566,4.557h46.11a4.563,4.563,0,1,0,0-9.125h-46.11A4.569,4.569,0,0,0,269.6,1986.918Z" transform="translate(-269.6 -1982.35)" fill="#242b2b"/>
      </g>
      <g id="Group_21980" data-name="Group 21980" transform="translate(98.098 385.264)">
        <path id="Path_29575" data-name="Path 29575" d="M693.38,2002.158a4.563,4.563,0,0,0,4.566,4.557h46.111a4.563,4.563,0,1,0,0-9.125H697.946A4.568,4.568,0,0,0,693.38,2002.158Z" transform="translate(-693.38 -1997.59)" fill="#242b2b"/>
      </g>
      <g id="Group_21981" data-name="Group 21981" transform="translate(117.54 370.762)">
        <path id="Path_29576" data-name="Path 29576" d="M810.308,1933.56l-31.088,14.5h31.235Z" transform="translate(-779.22 -1933.56)"/>
      </g>
      <g id="Group_21982" data-name="Group 21982" transform="translate(21.143 369.542)">
        <path id="Path_29577" data-name="Path 29577" d="M385.824,1928.17,353.6,1940.443h31.651Z" transform="translate(-353.6 -1928.17)"/>
      </g>
      <g id="Group_21983" data-name="Group 21983" transform="translate(1.511 85.037)">
        <path id="Path_29578" data-name="Path 29578" d="M338.184,863.38l1.04,17.347s-60.651,11.2-69.375.381c-8.806-10.923,5.055-51.877,5.055-51.877l26.63,5.227L294.8,863.52Z" transform="translate(-266.921 -793.621)" fill="#ffcfc5"/>
        <path id="Path_29579" data-name="Path 29579" d="M295.287,672.118c-19.115,3.97-24.957,47.381-24.957,47.381,10.735,7.467,26.087,8.849,36.759,5.085,0,0,4.5-19.84,5.866-34.322C314.142,677.653,300.423,671.051,295.287,672.118Z" transform="translate(-269.558 -672.006)" fill="#014eb1"/>
        <path id="Path_29580" data-name="Path 29580" d="M615.23,957.514s8.656-9.166,13.05-7.628-5.979,9.229-5.979,9.229" transform="translate(-536.342 -886.815)" fill="#ffcfc5"/>
        <path id="Path_29581" data-name="Path 29581" d="M646.765,922.7h35.321a5.046,5.046,0,0,0,5.01-4.419l5.893-46.643a5.044,5.044,0,0,0-5.01-5.683H652.665a5.046,5.046,0,0,0-5.01,4.419l-5.893,46.643A5.045,5.045,0,0,0,646.765,922.7Z" transform="translate(-556.834 -822.032)" fill="#242b2b"/>
        <path id="Path_29582" data-name="Path 29582" d="M680.609,921.654H645.291a5.478,5.478,0,0,1-5.431-6.172l5.893-46.643a5.494,5.494,0,0,1,5.442-4.8h35.312a5.477,5.477,0,0,1,5.44,6.169l-5.893,46.643A5.5,5.5,0,0,1,680.609,921.654ZM651.193,864.91a4.624,4.624,0,0,0-4.58,4.038l-5.893,46.643a4.609,4.609,0,0,0,4.571,5.2h35.321a4.624,4.624,0,0,0,4.58-4.038l5.893-46.643a4.611,4.611,0,0,0-4.58-5.2Z" transform="translate(-555.36 -820.547)" fill="#242b2b"/>
        <path id="Path_29583" data-name="Path 29583" d="M654.724,922.7h35.321a5.046,5.046,0,0,0,5.01-4.419l5.893-46.643a5.044,5.044,0,0,0-5.01-5.683H660.624a5.046,5.046,0,0,0-5.01,4.419l-5.893,46.643A5.044,5.044,0,0,0,654.724,922.7Z" transform="translate(-562.991 -822.032)" fill="#fff"/>
        <path id="Path_29584" data-name="Path 29584" d="M659.459,867.618a4.828,4.828,0,0,1,.4-1.418,5.044,5.044,0,0,0-4.247,4.365l-5.893,46.643a5.042,5.042,0,0,0,5,5.683h35.321a5.042,5.042,0,0,0,4.611-3,5.328,5.328,0,0,1-.763.054H658.569a5.042,5.042,0,0,1-5-5.682" transform="translate(-562.989 -822.218)" fill="#e5e8ff"/>
        <path id="Path_29585" data-name="Path 29585" d="M688.572,921.654H653.253a5.478,5.478,0,0,1-5.431-6.172l5.893-46.643a5.494,5.494,0,0,1,5.443-4.8h35.311a5.477,5.477,0,0,1,5.44,6.169l-5.893,46.643A5.5,5.5,0,0,1,688.572,921.654ZM659.153,864.91a4.624,4.624,0,0,0-4.58,4.038l-5.893,46.643a4.609,4.609,0,0,0,4.57,5.2h35.321a4.624,4.624,0,0,0,4.58-4.038l5.893-46.643a4.611,4.611,0,0,0-4.58-5.2Z" transform="translate(-561.52 -820.547)" fill="#242b2b"/>
        <path id="Path_29586" data-name="Path 29586" d="M575.5,958.6l9.188-.159a18.057,18.057,0,0,1,7.153-3.411c4.2-.9,15.419-2.752,15.813-.969.664,2.994-8.249,4.577-11.333,4.342,0,0,11.834,2.22,11.9,3.633s-12.9.3-12.9.3,11.374,1.889,10.951,3.694-12.158.2-12.158.2,9.988,2.113,9.2,4.206-11.961,2.928-11.961,2.928-2.6,2.516-4.874,3.055-10.384.213-10.384.213C573.514,974.379,572.5,960.208,575.5,958.6Z" transform="translate(-504.189 -889.598)" fill="#ffcfc5"/>
        <path id="Path_29587" data-name="Path 29587" d="M682.589,998.062c-3.073-.759-6.357-1.309-6.389-1.316l.143-.856c.034.007,3.347.564,6.455,1.329Z" transform="translate(-583.504 -922.534)" fill="#ffb29f"/>
        <path id="Path_29588" data-name="Path 29588" d="M682.771,983.893c-3.266-.174-6.41-.476-6.441-.478l.084-.865c.032,0,3.157.3,6.4.476Zm-3.891-4.165a15.36,15.36,0,0,1-1.551-.068l.091-.863a24.207,24.207,0,0,0,4.8-.147l.109.861A28.923,28.923,0,0,1,678.88,979.728Z" transform="translate(-583.604 -909.199)" fill="#ffb29f"/>
        <path id="Path_29589" data-name="Path 29589" d="M752.643,986.32a6.5,6.5,0,0,0,6.226-5.47,4.649,4.649,0,0,0-4.711-5.46,6.488,6.488,0,0,0-6.226,5.46A4.657,4.657,0,0,0,752.643,986.32Z" transform="translate(-638.949 -906.678)" fill="#e5e8ff"/>
        <path id="Path_29590" data-name="Path 29590" d="M752.636,987.316a6.134,6.134,0,0,0,3.832-1.4,5.723,5.723,0,0,1-1.782.285,4.655,4.655,0,0,1-4.711-5.47,6.374,6.374,0,0,1,2.376-4.052,6.539,6.539,0,0,0-4.428,5.168A4.657,4.657,0,0,0,752.636,987.316Z" transform="translate(-638.942 -907.675)" fill="#c5cde3"/>
      </g>
    </g>
  </g>
</svg>
